<?xml version="1.0" standalone="no"?>
<!DOCTYPE svg PUBLIC "-//W3C//DTD SVG 20010904//EN"
 "http://www.w3.org/TR/2001/REC-SVG-20010904/DTD/svg10.dtd">
<svg version="1.0" xmlns="http://www.w3.org/2000/svg"
 width="1024.000000pt" height="1024.000000pt" viewBox="0 0 1024.000000 1024.000000"
 preserveAspectRatio="xMidYMid meet">

<g transform="translate(0.000000,1024.000000) scale(0.100000,-0.100000)"
fill="#000000" stroke="none">
<path d="M2900 6950 c-813 -52 -1490 -629 -1650 -1407 -45 -218 -45 -522 0
-744 128 -629 595 -1168 1177 -1358 235 -77 239 -77 1127 -73 l569 2 -74 51
c-41 29 -146 124 -234 213 -164 165 -243 267 -287 373 l-22 53 -302 0 c-325 0
-384 6 -528 54 -100 34 -243 106 -333 168 -200 138 -348 369 -431 676 -22 82
-26 117 -25 227 0 157 27 273 96 419 59 125 114 203 215 308 135 140 295 237
477 290 l80 23 910 3 c659 2 931 0 984 -8 104 -17 207 -52 337 -115 292 -142
494 -377 574 -670 34 -122 39 -360 11 -520 -17 -103 -74 -332 -96 -387 -7 -17
16 -18 384 -18 l391 0 9 23 c15 39 68 265 87 372 15 79 19 152 19 350 -1 270
-10 343 -71 538 -190 604 -795 1087 -1446 1157 -110 11 -1763 11 -1948 0z"/>
<path d="M5936 6941 c5 -5 57 -43 115 -84 115 -83 208 -175 300 -299 62 -84
157 -246 184 -314 l16 -41 297 -6 c199 -3 330 -11 397 -21 493 -79 782 -315
930 -759 66 -199 80 -344 50 -504 -85 -447 -434 -790 -883 -868 -129 -23
-1789 -22 -1898 1 -405 83 -750 369 -870 721 -42 124 -54 199 -54 343 0 170
31 338 101 541 16 48 29 89 29 93 0 3 -175 6 -390 6 l-389 0 -20 -67 c-159
-544 -127 -1081 87 -1473 133 -243 347 -473 587 -630 221 -144 485 -239 750
-270 116 -13 1718 -13 1956 0 434 24 755 124 1064 331 300 201 504 509 616
934 83 316 85 686 4 1005 -127 502 -435 905 -855 1115 -304 152 -651 222
-1216 245 -310 12 -921 13 -908 1z"/>
</g>
</svg>
