<?xml version="1.0" standalone="no"?>
<!DOCTYPE svg PUBLIC "-//W3C//DTD SVG 20010904//EN"
 "http://www.w3.org/TR/2001/REC-SVG-20010904/DTD/svg10.dtd">
<svg version="1.0" xmlns="http://www.w3.org/2000/svg"
 width="920.000000pt" height="512.000000pt" viewBox="0 0 920.000000 512.000000"
 preserveAspectRatio="xMidYMid meet">

<g transform="translate(0.000000,512.000000) scale(0.100000,-0.100000)"
fill="#000000" stroke="none">
<path d="M3130 4845 c-160 -32 -326 -122 -445 -241 -117 -117 -196 -256 -238
-421 -22 -88 -22 -91 -22 -918 0 -827 0 -830 22 -918 87 -339 348 -591 684
-662 51 -11 138 -15 320 -15 l249 0 0 -510 c0 -280 3 -510 6 -510 3 0 264 230
579 510 l574 510 566 0 c477 0 578 2 643 16 157 32 298 106 419 218 119 111
207 251 255 408 23 73 23 74 26 918 3 939 4 928 -63 1083 -49 114 -91 180
-169 264 -111 119 -250 206 -408 255 l-73 23 -1430 2 c-1143 1 -1443 -1 -1495
-12z m538 -1300 c231 -126 217 -457 -23 -567 -69 -32 -190 -31 -255 0 -74 36
-117 78 -152 150 -80 162 -16 345 147 424 55 27 68 29 145 26 71 -3 94 -9 138
-33z m1067 11 c99 -46 154 -112 181 -218 36 -141 -32 -284 -169 -355 -45 -23
-64 -27 -137 -27 -73 0 -92 4 -137 27 -139 72 -209 223 -168 362 43 149 154
235 305 235 58 0 87 -6 125 -24z m1100 -4 c68 -33 127 -93 158 -161 32 -70 30
-179 -4 -252 -33 -69 -88 -127 -154 -159 -73 -36 -189 -35 -265 1 -141 67
-214 218 -175 362 38 146 154 236 305 237 62 0 85 -5 135 -28z"/>
</g>
</svg>
