<?xml version="1.0" standalone="no"?>
<!DOCTYPE svg PUBLIC "-//W3C//DTD SVG 20010904//EN"
 "http://www.w3.org/TR/2001/REC-SVG-20010904/DTD/svg10.dtd">
<svg version="1.0" xmlns="http://www.w3.org/2000/svg"
 width="360.000000pt" height="360.000000pt" viewBox="0 0 360.000000 360.000000"
 preserveAspectRatio="xMidYMid meet">

<g transform="translate(0.000000,360.000000) scale(0.100000,-0.100000)"
fill="#000000" stroke="none">
<path d="M1550 2994 c-332 -65 -564 -275 -634 -574 l-21 -91 -57 -23 c-87 -36
-152 -81 -222 -157 -302 -327 -172 -852 250 -1005 97 -36 94 -37 94 61 0 65
-3 85 -14 85 -38 0 -158 74 -207 128 -239 261 -116 668 228 757 70 18 93 42
93 99 1 176 108 360 269 465 116 74 279 111 408 92 159 -24 269 -79 372 -186
l63 -65 -31 -29 c-24 -22 -31 -38 -31 -65 0 -78 72 -102 149 -50 106 70 269
40 348 -64 45 -59 57 -110 49 -209 -8 -95 -1 -116 45 -132 25 -9 38 -8 62 4
36 18 48 12 108 -52 85 -91 126 -221 109 -343 -19 -134 -114 -266 -232 -324
l-58 -28 0 -83 0 -83 38 10 c67 18 175 82 237 139 68 65 117 140 151 233 89
245 -10 535 -233 683 -30 20 -55 45 -57 57 -21 111 -31 141 -65 193 -86 133
-224 207 -374 202 l-59 -3 -49 66 c-90 121 -242 223 -399 268 -74 21 -270 35
-330 24z"/>
<path d="M1604 2252 c-11 -4 -33 -16 -49 -28 -24 -18 -29 -31 -36 -85 -6 -53
-5 -67 9 -80 27 -25 56 -85 49 -103 -4 -9 -14 -16 -24 -16 -9 0 -36 -9 -59
-20 -51 -25 -74 -68 -74 -139 l0 -51 215 0 215 0 0 39 c0 96 -30 142 -109 165
-34 9 -47 19 -49 34 -3 20 28 74 55 97 8 7 10 28 4 73 -8 66 -18 81 -78 108
-35 15 -37 15 -69 6z"/>
<path d="M2337 1772 c-15 -10 -41 -40 -57 -65 -23 -36 -36 -47 -55 -47 -38 0
-96 27 -134 63 l-34 32 7 -44 c4 -24 18 -67 31 -95 14 -29 21 -54 16 -59 -5
-5 -45 -12 -88 -16 l-78 -6 45 -34 c177 -132 412 -119 505 29 14 22 28 54 32
71 4 24 15 35 42 47 l36 15 -33 11 c-18 6 -41 25 -51 41 -30 49 -58 68 -108
72 -36 3 -55 -1 -76 -15z"/>
<path d="M1321 1489 c-57 -11 -124 -51 -153 -92 -19 -26 -23 -45 -23 -103 0
-62 3 -75 28 -107 30 -39 92 -77 126 -77 12 0 50 -27 87 -60 36 -33 71 -57 76
-54 6 4 8 27 5 58 l-6 51 56 24 c125 55 159 187 72 285 -55 63 -169 95 -268
75z"/>
<path d="M2132 1178 c-5 -7 -17 -39 -26 -71 -19 -64 -68 -127 -116 -147 l-30
-12 0 -144 c0 -109 3 -144 13 -144 6 0 32 -14 57 -30 43 -29 49 -30 157 -30
104 0 113 2 127 22 9 12 16 30 16 40 0 10 9 27 21 39 13 13 18 27 13 41 -3 11
0 39 7 60 10 31 10 44 1 59 -7 10 -12 34 -12 52 0 48 -15 57 -96 57 -41 0 -76
5 -79 11 -4 6 -2 39 5 73 10 53 9 69 -4 99 -15 38 -36 47 -54 25z"/>
<path d="M1680 813 l0 -183 110 0 110 0 -2 182 -3 183 -107 0 -108 0 0 -182z
m184 -105 c8 -14 7 -21 -6 -34 -30 -30 -75 9 -48 42 16 18 39 15 54 -8z"/>
</g>
</svg>
