<?xml version="1.0" standalone="no"?>
<!DOCTYPE svg PUBLIC "-//W3C//DTD SVG 20010904//EN"
 "http://www.w3.org/TR/2001/REC-SVG-20010904/DTD/svg10.dtd">
<svg version="1.0" xmlns="http://www.w3.org/2000/svg"
 width="260.000000pt" height="300.000000pt" viewBox="0 0 260.000000 300.000000"
 preserveAspectRatio="xMidYMid meet">

<g transform="translate(0.000000,300.000000) scale(0.100000,-0.100000)"
fill="#000000" stroke="none">
<path d="M650 2785 l0 -215 90 0 90 0 0 215 0 215 -90 0 -90 0 0 -215z"/>
<path d="M1470 2785 l0 -215 90 0 90 0 0 215 0 215 -90 0 -90 0 0 -215z"/>
<path d="M7 2863 c-4 -3 -7 -640 -7 -1415 l0 -1408 635 0 635 0 0 95 0 95
-540 0 -540 0 0 1225 0 1225 205 0 206 0 -3 93 -3 92 -291 3 c-160 1 -293 -1
-297 -5z"/>
<path d="M890 2775 l0 -95 270 0 270 0 0 95 0 95 -270 0 -270 0 0 -95z"/>
<path d="M1680 2775 l0 -95 205 0 205 0 0 -665 0 -665 90 0 90 0 0 760 0 760
-295 0 -295 0 0 -95z"/>
<path d="M472 2204 c-58 -40 -65 -119 -14 -166 36 -34 65 -42 107 -28 49 16
75 53 75 107 0 63 -40 103 -102 103 -24 0 -54 -7 -66 -16z"/>
<path d="M860 2115 l0 -45 490 0 490 0 0 45 0 45 -490 0 -490 0 0 -45z"/>
<path d="M467 1580 c-59 -47 -56 -143 7 -181 49 -30 92 -25 132 15 28 28 34
41 34 78 -1 67 -44 108 -113 108 -19 0 -46 -9 -60 -20z"/>
<path d="M862 1494 l3 -45 465 0 c256 0 475 1 488 1 21 0 23 4 20 43 l-3 42
-488 3 -488 2 3 -46z"/>
<path d="M2331 1323 c-22 -26 -41 -50 -40 -53 1 -7 198 -170 213 -176 12 -4
86 79 86 97 0 8 -194 172 -209 177 -5 2 -27 -19 -50 -45z"/>
<path d="M1869 783 c-210 -252 -388 -465 -396 -474 -13 -16 -42 -254 -32 -264
10 -9 233 55 249 72 68 72 781 936 778 942 -3 9 -207 181 -214 181 -2 0 -175
-206 -385 -457z"/>
<path d="M479 966 c-15 -9 -34 -32 -44 -52 -46 -98 57 -190 155 -139 37 19 50
43 50 94 0 81 -92 136 -161 97z"/>
<path d="M867 914 c-4 -4 -7 -27 -7 -51 l0 -43 408 2 407 3 0 45 0 45 -400 3
c-220 2 -404 0 -408 -4z"/>
</g>
</svg>
